# xmcd
#
# Track frame offsets:
#	187
#	11077
#	21955
#	35210
#	47252
#	61117
#	74187
#	87795
#	102297
#	111627
#
# Disc length: 1663 seconds
#
# Revision: 9
# Processed by: cddbd v1.5.1PL2 Copyright (c) Steve Scherf et al.
# Submitted via: dBpowerAMP V4.0
#
DISCID=89067d0a
DTITLE=George Strait - Greatest Hits
DYEAR=1985
DGENRE=Country
TTITLE0=Unwound
TTITLE1=Down and Out
TTITLE2=If You're Thinking You Want a Stranger (There's One Coming Home)
TTITLE3=Fool Hearted Memory
TTITLE4=Marina Del Rey
TTITLE5=Amarillo By Morning
TTITLE6=A Fire I Can't Put Out
TTITLE7=You Look So Good in Love
TTITLE8=Right or Wrong
TTITLE9=Let's Fall to Pieces Together
EXTD=MCAD-5567
EXTT0=
EXTT1=
EXTT2=
EXTT3=
EXTT4=
EXTT5=
EXTT6=
EXTT7=
EXTT8=
EXTT9=
PLAYORDER=
